<svg enable-background="new 0 0 560 220" height="220" viewBox="0 0 560 220" width="560" xmlns="http://www.w3.org/2000/svg"><g fill="#f8f7f4"><path d="m560 205c0 8.25-6.75 15-15 15h-530c-8.25 0-15-6.75-15-15v-190c0-8.25 6.75-15 15-15h530c8.25 0 15 6.75 15 15z"/><path d="m545 0h-524.271l-20.729 20.729v184.271c0 8.25 6.75 15 15 15h530c8.25 0 15-6.75 15-15v-190c0-8.25-6.75-15-15-15z"/><path d="m10.246.79c-4.439 1.497-7.959 5.017-9.456 9.456z"/></g><path d="m20.741 0h-5.741c-1.655 0-3.245.283-4.737.784l-9.479 9.479c-.501 1.492-.784 3.082-.784 4.737v5.741z" fill="#92cdff"/><path d="m0 40.116 40.116-40.116h-9.693l-30.423 30.423z" fill="#fe9e90"/><path d="m0 59.504 59.504-59.504h-9.693l-49.811 49.811z" fill="#92cdff"/><path d="m0 78.891 78.891-78.891h-9.694l-69.197 69.197z" fill="#fe9e90"/><path d="m0 98.278 98.278-98.278h-9.694l-88.584 88.584z" fill="#92cdff"/><path d="m0 117.665 117.665-117.665h-9.694l-107.971 107.971z" fill="#fe9e90"/><path d="m0 137.052 137.052-137.052h-9.694l-127.358 127.358z" fill="#92cdff"/><path d="m0 156.438 156.438-156.438h-9.693l-146.745 146.745z" fill="#fe9e90"/><path d="m0 175.826 175.826-175.826h-9.693l-166.133 166.134z" fill="#92cdff"/><path d="m0 195.213 195.213-195.213h-9.693l-185.52 185.521z" fill="#fe9e90"/><path d="m204.907 0-204.907 204.907v.093c0 2.746.761 5.317 2.063 7.538l212.538-212.538z" fill="#92cdff"/><path d="m14.036 219.951 219.951-219.951h-9.694l-217.518 217.519c2.113 1.395 4.596 2.26 7.261 2.432z" fill="#fe9e90"/><path d="m33.375 220 220-220h-9.695l-219.999 220z" fill="#92cdff"/><path d="m52.762 220 220-220h-9.695l-219.999 220z" fill="#fe9e90"/><path d="m72.149 220 219.999-220h-9.694l-219.999 220z" fill="#92cdff"/><path d="m91.536 220 219.999-220h-9.693l-220 220z" fill="#fe9e90"/><path d="m110.923 220 220-220h-9.694l-220 220z" fill="#92cdff"/><path d="m130.31 220 220-220h-9.695l-219.999 220z" fill="#fe9e90"/><path d="m149.697 220 219.999-220h-9.693l-220 220z" fill="#92cdff"/><path d="m169.084 220 219.999-220h-9.692l-220.001 220z" fill="#fe9e90"/><path d="m188.471 220 220.001-220h-9.695l-220 220z" fill="#92cdff"/><path d="m207.858 220 219.999-220h-9.693l-219.999 220z" fill="#fe9e90"/><path d="m227.246 220 220.001-220h-9.695l-220 220z" fill="#92cdff"/><path d="m246.632 220 220.001-220h-9.695l-220 220z" fill="#fe9e90"/><path d="m266.021 220 220-220h-9.696l-220 220z" fill="#92cdff"/><path d="m285.406 220 220-220h-9.693l-220 220z" fill="#fe9e90"/><path d="m304.794 220 220-220h-9.694l-220 220z" fill="#92cdff"/><path d="m324.181 220 220-220h-9.695l-220 220z" fill="#fe9e90"/><path d="m343.568 220 213.652-213.651c-1.34-1.883-3.094-3.453-5.137-4.557l-218.209 218.208z" fill="#92cdff"/><path d="m362.955 220 197.045-197.045v-7.955c0-.555-.036-1.102-.096-1.642l-206.642 206.642z" fill="#fe9e90"/><path d="m382.342 220 177.658-177.658v-9.694l-187.352 187.352z" fill="#92cdff"/><path d="m401.729 220 158.271-158.271v-9.692l-167.964 167.963z" fill="#fe9e90"/><path d="m421.117 220 138.883-138.882v-9.696l-148.577 148.578z" fill="#92cdff"/><path d="m440.504 220 119.496-119.496v-9.695l-129.19 129.191z" fill="#fe9e90"/><path d="m459.892 220 100.108-100.108v-9.696l-109.804 109.804z" fill="#92cdff"/><path d="m479.278 220 80.722-80.722v-9.695l-90.417 90.417z" fill="#fe9e90"/><path d="m498.665 220 61.335-61.335v-9.693l-71.028 71.028z" fill="#92cdff"/><path d="m518.052 220 41.948-41.948v-9.695l-51.643 51.643z" fill="#fe9e90"/><path d="m537.438 220 22.562-22.562v-9.692l-32.254 32.254z" fill="#92cdff"/><path d="m559.798 207.335-12.463 12.463c6.386-1.011 11.452-6.077 12.463-12.463z" fill="#fe9e90"/></svg>